# Blender 4.5.3 LTS
# www.blender.org
mtllib Courage.mtl
o Color
v 0.052102 -0.139339 -0.155391
v 0.052102 -0.353284 -0.160499
v -0.063905 -0.137884 -0.155391
v -0.063905 -0.352962 -0.160499
v 0.133329 -0.112820 -0.013203
v 0.133329 -0.406089 -0.013203
v -0.139755 -0.045520 -0.013203
v -0.159484 -0.388533 -0.013203
v 0.133329 -0.114601 -0.085429
v -0.137202 -0.395878 -0.092402
v 0.133329 -0.392298 -0.079494
v -0.117472 -0.047301 -0.098336
v -0.000557 -0.172465 -0.157405
v -0.008911 -0.162869 -0.157178
v -0.019196 -0.171176 -0.157378
v -0.015279 -0.180760 -0.157606
v -0.003796 -0.182845 -0.157653
v 0.015731 -0.220408 -0.309951
v 0.003461 -0.206328 -0.320431
v 0.012865 -0.235548 -0.330223
v 0.028382 -0.237529 -0.353093
v -0.001278 -0.208555 -0.362850
v 0.037926 -0.209726 -0.353219
v 0.020700 -0.192115 -0.379861
v 0.053279 -0.229058 -0.358034
v -0.011884 -0.227230 -0.343545
v 0.017544 -0.193522 -0.350196
v -0.004809 -0.202744 -0.347362
v 0.038443 -0.221628 -0.341726
v 0.020917 -0.190564 -0.357294
v 0.041989 -0.223858 -0.346415
v -0.003984 -0.241603 -0.364731
v 0.018152 -0.394695 -0.113748
v 0.024777 -0.389278 -0.119724
v 0.007755 -0.382903 -0.128330
v -0.003231 -0.384207 -0.127457
v 0.000909 -0.392622 -0.117288
v 0.018456 -0.481619 -0.108637
v 0.024697 -0.476923 -0.118506
v 0.012360 -0.473860 -0.124242
v 0.004820 -0.473845 -0.122665
v 0.007498 -0.478143 -0.114500
v -0.159484 -0.302387 -0.013203
v -0.159484 -0.338532 -0.013203
v -0.230771 -0.255789 -0.013203
v -0.250906 -0.356180 -0.013203
v -0.276593 -0.296391 -0.013203
v -0.183591 -0.306609 -0.013203
v -0.238417 -0.290975 -0.013203
v -0.245607 -0.316244 -0.013203
v -0.196697 -0.341892 -0.013203
v -0.196318 -0.307832 -0.013203
v 0.020280 -0.488338 -0.109642
v 0.025519 -0.486417 -0.118549
v 0.010943 -0.482120 -0.124880
v 0.002442 -0.482632 -0.125295
v 0.005867 -0.485880 -0.115703
v 0.020110 -0.479501 -0.092587
v 0.034375 -0.482587 -0.093019
v 0.018427 -0.489948 -0.094254
v 0.033910 -0.494534 -0.095926
v 0.043501 -0.471156 -0.133579
v 0.027483 -0.472255 -0.142073
v 0.041549 -0.487713 -0.136094
v 0.027290 -0.487723 -0.140432
v 0.033841 -0.478503 -0.110513
v 0.043523 -0.472756 -0.125048
v 0.037057 -0.494591 -0.111214
v 0.047101 -0.489023 -0.125641
v -0.032900 -0.046463 -0.093360
v -0.022839 -0.130052 -0.155391
v -0.030058 -0.044683 -0.013203
v 0.018739 -0.065574 -0.090896
v 0.028319 -0.139041 -0.155391
v 0.024631 -0.063794 -0.013203
v -0.015751 0.238423 -0.012004
v 0.033433 0.228523 -0.058968
v 0.063052 0.212534 -0.089563
v 0.102853 0.134144 -0.121263
v 0.110197 0.081641 -0.149165
v 0.108181 0.032365 -0.135275
v 0.074268 -0.027238 -0.095721
v 0.043431 -0.069201 -0.056144
v -0.014755 -0.060312 -0.011872
v 0.060630 0.225490 -0.012713
v 0.147489 0.123124 -0.012435
v 0.392039 0.067278 -0.012713
v 0.408429 0.032931 -0.012713
v 0.358649 -0.033466 -0.012953
v 0.228783 -0.051905 -0.012713
v 0.182463 -0.063061 -0.012713
v -0.098305 0.219950 -0.012713
v -0.163083 0.141339 -0.012713
v -0.129737 -0.028275 -0.012713
v -0.031718 0.216013 -0.098083
v -0.054620 0.140622 -0.146034
v -0.042831 -0.032371 -0.124064
v 0.116377 -0.069201 -0.033894
v 0.374207 0.052391 -0.117177
v 0.367590 -0.025495 -0.118614
v 0.363765 -0.009669 -0.084102
v 0.193152 -0.010586 -0.094882
v 0.149322 -0.048089 -0.047657
v 0.304115 0.016541 -0.171538
v 0.401161 0.002462 -0.151289
v 0.357559 -0.007769 -0.176686
v 0.234006 -0.004346 -0.144010
v 0.381409 0.039693 -0.088455
v 0.366851 0.054407 -0.165232
v 0.392617 0.036041 -0.137312
v 0.276588 0.081736 -0.109622
v 0.257567 -0.025324 -0.012920
v 0.394717 -0.008378 -0.012713
v 0.225669 0.056621 -0.133127
v 0.235780 -0.034742 -0.012713
v 0.237233 -0.041762 -0.012713
v 0.231257 -0.029433 -0.024397
v 0.223029 -0.049972 -0.022286
v 0.233344 -0.036797 -0.025438
v 0.032823 0.224467 -0.069290
v 0.021725 0.221353 -0.078787
v 0.036317 0.216421 -0.080046
v 0.032788 0.308752 -0.150397
v 0.022166 0.301448 -0.156575
v 0.036131 0.296797 -0.155125
v 0.033380 0.312529 -0.240092
v 0.014760 0.296300 -0.244313
v 0.039242 0.290048 -0.238494
v 0.038456 0.302436 -0.304055
v 0.027064 0.307484 -0.306820
v 0.025729 0.297110 -0.311874
v 0.035985 0.292677 -0.303718
v 0.033413 0.295322 -0.315237
v 0.052102 -0.139339 0.128985
v 0.052102 -0.353284 0.134093
v -0.063905 -0.137884 0.128985
v -0.063905 -0.352962 0.134093
v 0.133329 -0.114601 0.059023
v -0.137202 -0.395878 0.065996
v 0.133329 -0.392298 0.053089
v -0.117472 -0.047301 0.071931
v -0.000557 -0.172465 0.130999
v -0.008911 -0.162869 0.130772
v -0.019196 -0.171176 0.130972
v -0.015279 -0.180760 0.131200
v -0.003796 -0.182845 0.131248
v 0.015731 -0.220408 0.283545
v 0.003461 -0.206328 0.294025
v 0.012865 -0.235548 0.303818
v 0.028382 -0.237529 0.326687
v -0.001278 -0.208555 0.336444
v 0.037926 -0.209726 0.326813
v 0.020700 -0.192115 0.353456
v 0.053279 -0.229058 0.331628
v -0.011884 -0.227230 0.317139
v 0.017544 -0.193522 0.323790
v -0.004809 -0.202744 0.320956
v 0.038443 -0.221628 0.315320
v 0.020917 -0.190564 0.330888
v 0.041989 -0.223858 0.320009
v -0.003984 -0.241603 0.338325
v 0.018152 -0.394695 0.087343
v 0.024777 -0.389278 0.093318
v 0.007755 -0.382903 0.101924
v -0.003231 -0.384207 0.101051
v 0.000909 -0.392622 0.090882
v 0.018456 -0.481619 0.082232
v 0.024697 -0.476923 0.092101
v 0.012360 -0.473860 0.097836
v 0.004820 -0.473845 0.096260
v 0.007498 -0.478143 0.088095
v 0.020280 -0.488338 0.083236
v 0.025519 -0.486417 0.092143
v 0.010943 -0.482120 0.098474
v 0.002442 -0.482632 0.098889
v 0.005867 -0.485880 0.089297
v 0.020110 -0.479501 0.066181
v 0.034375 -0.482587 0.066614
v 0.018427 -0.489948 0.067848
v 0.033910 -0.494534 0.069520
v 0.043501 -0.471156 0.107174
v 0.027483 -0.472255 0.115667
v 0.041549 -0.487713 0.109689
v 0.027290 -0.487723 0.114026
v 0.033841 -0.478503 0.084108
v 0.043523 -0.472756 0.098643
v 0.037057 -0.494591 0.084808
v 0.047101 -0.489023 0.099235
v -0.032900 -0.046463 0.066954
v -0.022839 -0.130052 0.128985
v 0.018739 -0.065574 0.064490
v 0.028319 -0.139041 0.128985
v -0.015751 0.238423 -0.014402
v 0.033433 0.228523 0.032562
v 0.063052 0.212534 0.063157
v 0.102853 0.134144 0.094857
v 0.110197 0.081641 0.122759
v 0.108181 0.032365 0.108869
v 0.074268 -0.027238 0.069315
v 0.043431 -0.069201 0.029738
v -0.014755 -0.060312 -0.014534
v 0.060630 0.225490 -0.013693
v 0.147489 0.123124 -0.013970
v 0.392039 0.067278 -0.013693
v 0.408429 0.032931 -0.013693
v 0.358649 -0.033466 -0.013453
v 0.228783 -0.051905 -0.013693
v 0.182463 -0.063061 -0.013693
v -0.098305 0.219950 -0.013693
v -0.163083 0.141339 -0.013693
v -0.129737 -0.028275 -0.013693
v -0.031718 0.216013 0.071677
v -0.054620 0.140622 0.119629
v -0.042831 -0.032371 0.097659
v 0.116377 -0.069201 0.007488
v 0.374207 0.052391 0.090771
v 0.367590 -0.025495 0.092208
v 0.363765 -0.009669 0.057696
v 0.193152 -0.010586 0.068476
v 0.149322 -0.048089 0.021251
v 0.304115 0.016541 0.145132
v 0.401161 0.002462 0.124884
v 0.357559 -0.007769 0.150280
v 0.234006 -0.004346 0.117604
v 0.381409 0.039693 0.062049
v 0.366851 0.054407 0.138826
v 0.392617 0.036041 0.110907
v 0.276588 0.081736 0.083216
v 0.257567 -0.025324 -0.013486
v 0.394717 -0.008378 -0.013693
v 0.225669 0.056621 0.106722
v 0.235780 -0.034742 -0.013693
v 0.237233 -0.041762 -0.013693
v 0.231257 -0.029433 -0.002009
v 0.223029 -0.049972 -0.004119
v 0.233344 -0.036797 -0.000968
v 0.032823 0.224467 0.042884
v 0.021725 0.221353 0.052381
v 0.036317 0.216421 0.053640
v 0.032788 0.308752 0.123992
v 0.022166 0.301448 0.130169
v 0.036131 0.296797 0.128720
v 0.033380 0.312529 0.213686
v 0.014760 0.296300 0.217908
v 0.039242 0.290048 0.212088
v 0.038456 0.302436 0.277649
v 0.027064 0.307484 0.280415
v 0.025729 0.297110 0.285469
v 0.035985 0.292677 0.277312
v 0.033413 0.295322 0.288832
vn -0.6976 0.0234 -0.7161
vn 0.0009 0.0521 -0.9986
vn 0.2757 0.7004 -0.6584
vn 0.0270 -0.9066 -0.4210
vn 1.0000 -0.0000 -0.0000
vn 0.6807 -0.0012 -0.7326
vn -0.0237 -0.9986 -0.0479
vn 0.4026 0.9146 -0.0375
vn -0.9554 0.0523 -0.2906
vn 0.0001 0.0202 -0.9998
vn -0.1708 -0.9468 0.2727
vn -0.6059 0.7561 -0.2472
vn 0.8992 -0.3840 0.2100
vn -0.9488 -0.3101 -0.0605
vn 0.7727 0.6251 -0.1108
vn -0.8815 -0.4721 -0.0085
vn -0.2171 0.0701 -0.9736
vn 0.7523 0.6567 -0.0524
vn -0.6217 0.7818 -0.0477
vn 0.1243 -0.7889 -0.6018
vn 0.5761 0.6742 0.4620
vn 0.2353 -0.0852 -0.9682
vn 0.0752 -0.9878 0.1366
vn -0.5355 -0.4182 0.7337
vn 0.5735 -0.6931 0.4366
vn 0.8071 0.4279 0.4069
vn -0.8970 0.3085 0.3165
vn -0.3466 0.9100 0.2275
vn 0.5722 0.6195 0.5373
vn 0.6488 -0.2194 0.7286
vn 0.5435 -0.6878 0.4811
vn -0.9292 0.2224 -0.2953
vn -0.4925 0.8319 -0.2557
vn 0.5739 0.6226 0.5321
vn 0.3353 0.0262 -0.9417
vn 0.0080 -0.7367 -0.6761
vn -0.3106 0.0311 0.9500
vn -0.8582 0.0763 0.5077
vn -0.1269 -0.0576 -0.9902
vn 0.7684 0.0242 0.6395
vn -0.9493 -0.0661 0.3072
vn 0.4348 -0.0157 -0.9004
vn -0.0000 -0.0000 -1.0000
vn -0.0454 -0.9397 -0.3390
vn -0.1203 0.9387 0.3232
vn -0.9177 0.1361 0.3732
vn -0.7263 0.0202 -0.6871
vn -0.0770 0.2042 -0.9759
vn 0.0173 -0.2016 0.9793
vn 0.2797 0.9477 -0.1539
vn -0.2098 -0.9695 -0.1267
vn 0.7145 0.1929 -0.6726
vn 0.3902 -0.0010 -0.9207
vn 0.6869 -0.1005 0.7198
vn -0.0279 0.9812 0.1910
vn -0.1634 -0.9855 0.0456
vn 0.7913 0.1424 0.5946
vn -0.2974 -0.8351 -0.4628
vn -0.3185 -0.0310 -0.9474
vn 0.1015 -0.0518 0.9935
vn -0.0061 0.5629 -0.8265
vn -0.0080 0.9997 -0.0225
vn 0.1903 0.6302 -0.7527
vn 0.3388 0.9400 -0.0400
vn -0.0418 -0.1609 -0.9861
vn -0.0389 0.9687 -0.2450
vn 0.0708 0.9059 -0.4176
vn 0.2100 -0.6208 -0.7553
vn 0.1338 0.4673 -0.8739
vn 0.1880 -0.7435 -0.6418
vn -0.2724 -0.9474 -0.1678
vn 0.1555 0.4805 -0.8631
vn -0.0119 -0.9498 0.3125
vn 0.2801 0.9490 -0.1445
vn 0.9226 -0.1466 0.3569
vn 0.3141 -0.8543 -0.4141
vn 0.1576 -0.8393 -0.5202
vn 0.1670 -0.8644 -0.4742
vn 0.2567 -0.7761 -0.5760
vn -0.2633 -0.9495 -0.1706
vn -0.7749 -0.1416 -0.6160
vn -0.2118 0.9546 -0.2092
vn -0.6526 0.5378 -0.5338
vn -0.2155 -0.8965 0.3872
vn -0.0432 -0.9890 0.1417
vn 0.2899 0.8461 -0.4474
vn 0.0236 -0.0259 -0.9994
vn 0.1666 0.9855 -0.0333
vn 0.3498 0.9255 -0.1450
vn 0.0876 -0.5850 -0.8063
vn 0.7893 0.5853 -0.1855
vn 0.1199 -0.8287 -0.5468
vn 0.1993 -0.7424 -0.6396
vn 0.3935 -0.8581 -0.3299
vn 0.8772 -0.3205 -0.3575
vn 0.8683 0.4144 -0.2728
vn -0.0115 0.1828 -0.9831
vn 0.4860 0.0876 -0.8696
vn 0.3630 0.9317 -0.0165
vn 0.7898 0.3959 -0.4684
vn -0.0761 -0.9439 -0.3212
vn -0.2847 -0.8924 -0.3501
vn 0.0155 -0.9869 -0.1607
vn -0.1544 -0.8555 -0.4943
vn 0.5571 -0.7988 -0.2271
vn -0.3914 0.1096 -0.9137
vn -0.0041 0.6877 -0.7260
vn 0.9433 0.2482 -0.2207
vn 0.5823 -0.5897 -0.5596
vn 0.8701 0.3017 -0.3897
vn 0.6569 -0.5918 -0.4672
vn -0.6485 0.5299 0.5465
vn 0.9646 0.1821 0.1907
vn -0.2210 -0.6725 -0.7063
vn -0.6308 0.7758 0.0182
vn 0.9663 0.2568 0.0163
vn -0.2850 -0.9557 0.0736
vn 0.9327 -0.2452 -0.2646
vn -0.7912 0.6098 -0.0466
vn 0.9944 0.1051 0.0079
vn -0.2786 -0.9595 -0.0410
vn 0.4246 0.8989 -0.1081
vn -0.2870 -0.9456 -0.1530
vn 0.2008 0.6262 -0.7533
vn 0.0385 0.9322 -0.3599
vn -0.2834 0.5948 -0.7523
vn -0.6976 0.0234 0.7161
vn 0.0009 0.0521 0.9986
vn 0.2757 0.7004 0.6584
vn 0.0270 -0.9066 0.4210
vn 0.6807 -0.0012 0.7326
vn -0.0237 -0.9986 0.0479
vn 0.4026 0.9146 0.0375
vn -0.9554 0.0523 0.2906
vn 0.0001 0.0202 0.9998
vn -0.1708 -0.9468 -0.2727
vn -0.6059 0.7561 0.2472
vn 0.8992 -0.3840 -0.2100
vn -0.9488 -0.3101 0.0605
vn 0.7727 0.6251 0.1108
vn -0.8815 -0.4721 0.0085
vn -0.2171 0.0701 0.9736
vn 0.7523 0.6567 0.0524
vn -0.6217 0.7818 0.0477
vn 0.1243 -0.7889 0.6018
vn 0.5761 0.6742 -0.4620
vn 0.2353 -0.0852 0.9682
vn 0.0752 -0.9878 -0.1366
vn -0.5355 -0.4182 -0.7337
vn 0.5735 -0.6931 -0.4366
vn 0.8071 0.4279 -0.4069
vn -0.8970 0.3085 -0.3165
vn -0.3466 0.9100 -0.2275
vn 0.5722 0.6195 -0.5373
vn 0.6488 -0.2194 -0.7286
vn 0.5435 -0.6878 -0.4811
vn -0.9292 0.2224 0.2953
vn -0.4925 0.8319 0.2557
vn 0.5739 0.6226 -0.5321
vn 0.3353 0.0262 0.9417
vn 0.0080 -0.7367 0.6761
vn -0.3106 0.0311 -0.9500
vn -0.8582 0.0763 -0.5077
vn -0.1269 -0.0576 0.9902
vn 0.7684 0.0242 -0.6395
vn -0.9493 -0.0661 -0.3072
vn 0.4348 -0.0157 0.9004
vn -0.0454 -0.9397 0.3390
vn -0.1203 0.9387 -0.3232
vn -0.9177 0.1361 -0.3732
vn -0.7263 0.0202 0.6871
vn -0.0770 0.2042 0.9759
vn 0.0173 -0.2016 -0.9793
vn 0.2797 0.9477 0.1539
vn -0.2098 -0.9695 0.1267
vn 0.7145 0.1929 0.6726
vn 0.3902 -0.0010 0.9207
vn 0.6869 -0.1005 -0.7198
vn -0.0279 0.9812 -0.1910
vn -0.1634 -0.9855 -0.0456
vn 0.7913 0.1424 -0.5946
vn -0.2974 -0.8351 0.4628
vn -0.3185 -0.0310 0.9474
vn 0.1015 -0.0518 -0.9935
vn -0.0061 0.5629 0.8265
vn -0.0080 0.9997 0.0225
vn 0.1903 0.6302 0.7527
vn 0.3388 0.9400 0.0400
vn -0.0418 -0.1609 0.9861
vn -0.0389 0.9687 0.2450
vn 0.0708 0.9059 0.4176
vn 0.2100 -0.6208 0.7553
vn 0.1338 0.4673 0.8739
vn 0.1880 -0.7435 0.6418
vn -0.2724 -0.9474 0.1678
vn 0.1555 0.4805 0.8631
vn -0.0119 -0.9498 -0.3125
vn 0.2801 0.9490 0.1445
vn 0.9226 -0.1466 -0.3569
vn 0.3141 -0.8543 0.4141
vn 0.1576 -0.8393 0.5202
vn 0.1670 -0.8644 0.4742
vn 0.2567 -0.7761 0.5760
vn -0.2633 -0.9495 0.1706
vn -0.7749 -0.1416 0.6160
vn -0.2118 0.9546 0.2092
vn -0.6526 0.5378 0.5338
vn -0.2155 -0.8965 -0.3872
vn -0.0432 -0.9890 -0.1417
vn 0.2899 0.8461 0.4474
vn 0.0236 -0.0259 0.9994
vn 0.1666 0.9855 0.0333
vn 0.3498 0.9255 0.1450
vn 0.0876 -0.5850 0.8063
vn 0.7893 0.5853 0.1855
vn 0.1199 -0.8287 0.5468
vn 0.1993 -0.7424 0.6396
vn 0.3935 -0.8581 0.3299
vn 0.8772 -0.3205 0.3575
vn 0.8683 0.4144 0.2728
vn -0.0115 0.1828 0.9831
vn 0.4860 0.0876 0.8696
vn 0.3630 0.9317 0.0165
vn 0.7898 0.3959 0.4684
vn -0.0761 -0.9439 0.3212
vn -0.2847 -0.8924 0.3501
vn 0.0155 -0.9869 0.1607
vn -0.1544 -0.8555 0.4943
vn 0.5571 -0.7988 0.2271
vn -0.3914 0.1096 0.9137
vn -0.0041 0.6877 0.7260
vn 0.9433 0.2482 0.2207
vn 0.5823 -0.5897 0.5596
vn 0.8701 0.3017 0.3897
vn 0.6569 -0.5918 0.4672
vn -0.6485 0.5299 -0.5465
vn 0.9646 0.1821 -0.1907
vn -0.2210 -0.6725 0.7063
vn -0.6308 0.7758 -0.0182
vn 0.9663 0.2568 -0.0163
vn -0.2850 -0.9557 -0.0736
vn 0.9327 -0.2452 0.2646
vn -0.7912 0.6098 0.0466
vn 0.9944 0.1051 -0.0079
vn -0.2786 -0.9595 0.0410
vn 0.4246 0.8989 0.1081
vn -0.2870 -0.9456 0.1530
vn 0.2008 0.6262 0.7533
vn 0.0385 0.9322 0.3599
vn -0.2834 0.5948 0.7523
vt 0.772178 0.209870
vt 0.764717 0.035777
vt 0.811388 0.057683
vt 0.809286 0.164992
vt 0.136508 0.807606
vt 0.147104 0.797866
vt 0.149935 0.799089
vt 0.151849 0.796581
vt 0.166193 0.801014
vt 0.160108 0.802366
vt 0.147202 0.807030
vt 0.191725 0.812716
vt 0.163132 0.828394
vt 0.189533 0.919162
vt 0.189448 0.847848
vt 0.212360 0.869944
vt 0.197939 0.876590
vt 0.195783 0.878253
vt 0.196720 0.882835
vt 0.200145 0.884058
vt 0.211423 0.900539
vt 0.056719 0.964775
vt 0.058264 0.891021
vt 0.075521 0.887728
vt 0.075521 0.965652
vt 0.161142 0.755180
vt 0.185918 0.755180
vt 0.172697 0.924982
vt 0.172697 0.847535
vt 0.196074 0.824338
vt 0.169317 0.840548
vt 0.731473 0.211223
vt 0.726454 0.082811
vt 0.726454 0.064785
vt 0.726454 0.039849
vt 0.150774 0.794532
vt 0.147882 0.795601
vt 0.131432 0.761534
vt 0.078501 0.927535
vt 0.075521 0.926742
vt 0.078501 0.887728
vt 0.232047 0.803803
vt 0.229777 0.803906
vt 0.233997 0.760667
vt 0.236012 0.897204
vt 0.233212 0.898044
vt 0.233467 0.855877
vt 0.236012 0.849646
vt 0.227382 0.802743
vt 0.227382 0.755180
vt 0.231270 0.898966
vt 0.229839 0.854525
vt 0.138364 0.950957
vt 0.132552 0.946114
vt 0.131185 0.943575
vt 0.138364 0.942051
vt 0.090790 0.953498
vt 0.095986 0.950244
vt 0.096559 0.956498
vt 0.124689 0.949413
vt 0.128069 0.951984
vt 0.124689 0.956813
vt 0.213847 0.842502
vt 0.217128 0.836480
vt 0.217128 0.845022
vt 0.148805 0.952612
vt 0.148805 0.942051
vt 0.156041 0.948352
vt 0.117701 0.937315
vt 0.125164 0.935174
vt 0.125164 0.940696
vt 0.115337 0.941023
vt 0.089518 0.942946
vt 0.168677 0.942051
vt 0.168677 0.950732
vt 0.162999 0.945042
vt 0.158394 0.950002
vt 0.156041 0.942051
vt 0.162999 0.942051
vt 0.230196 0.847535
vt 0.123113 0.951570
vt 0.124057 0.952597
vt 0.119963 0.953838
vt 0.128200 0.951636
vt 0.134263 0.952627
vt 0.124236 0.947110
vt 0.117971 0.945630
vt 0.124057 0.947110
vt 0.120605 0.949175
vt 0.201474 0.846466
vt 0.196074 0.843226
vt 0.196232 0.841728
vt 0.201474 0.841004
vt 0.219601 0.843635
vt 0.217128 0.838423
vt 0.220427 0.836480
vt 0.220427 0.843765
vt 0.116264 0.946792
vt 0.096559 0.941140
vt 0.200617 0.881180
vt 0.148805 0.960185
vt 0.144172 0.959849
vt 0.144172 0.942051
vt 0.147249 0.942154
vt 0.113230 0.936505
vt 0.113058 0.938574
vt 0.108632 0.937974
vt 0.108917 0.935174
vt 0.209044 0.841200
vt 0.206221 0.841366
vt 0.208492 0.822942
vt 0.210387 0.822477
vt 0.078182 0.950625
vt 0.076535 0.952463
vt 0.075521 0.929198
vt 0.078182 0.927535
vt 0.115337 0.964159
vt 0.113149 0.961793
vt 0.114870 0.939802
vt 0.213847 0.840768
vt 0.213847 0.822414
vt 0.573299 0.171676
vt 0.530978 0.180055
vt 0.530473 0.151555
vt 0.529029 0.136743
vt 0.460308 0.109473
vt 0.573299 0.063216
vt 0.568822 0.128415
vt 0.499777 0.092589
vt 0.497490 0.047751
vt 0.527738 0.078523
vt 0.079654 0.943353
vt 0.078808 0.941283
vt 0.081552 0.941140
vt 0.084535 0.944035
vt 0.082956 0.946183
vt 0.097259 0.941140
vt 0.099232 0.943593
vt 0.099232 0.948861
vt 0.096559 0.945245
vt 0.115337 0.937462
vt 0.204783 0.846618
vt 0.202583 0.846352
vt 0.205683 0.841004
vt 0.207756 0.820724
vt 0.209987 0.820665
vt 0.162999 0.955191
vt 0.162999 0.951331
vt 0.165956 0.950732
vt 0.165506 0.955003
vt 0.115969 0.954806
vt 0.116778 0.951806
vt 0.119963 0.947732
vt 0.119963 0.951591
vt 0.087733 0.942164
vt 0.089518 0.945903
vt 0.115337 0.950923
vt 0.117034 0.947110
vt 0.168677 0.954443
vt 0.169475 0.949827
vt 0.172472 0.949605
vt 0.172472 0.953518
vt 0.156338 0.950002
vt 0.158803 0.950293
vt 0.160593 0.955044
vt 0.156041 0.955044
vt 0.168677 0.943474
vt 0.172071 0.942051
vt 0.172648 0.947149
vt 0.168677 0.949605
vt 0.081090 0.951589
vt 0.078808 0.948472
vt 0.210063 0.842869
vt 0.210081 0.847373
vt 0.206221 0.845842
vt 0.086692 0.948009
vt 0.083956 0.951978
vt 0.098349 0.955642
vt 0.096559 0.954644
vt 0.096559 0.948861
vt 0.099543 0.951126
vt 0.212071 0.841797
vt 0.213712 0.841366
vt 0.213712 0.845321
vt 0.210081 0.846115
vt 0.150180 0.834832
vt 0.128200 0.838463
vt 0.208267 0.950753
vt 0.193096 0.953632
vt 0.193096 0.924982
vt 0.209194 0.928531
vt 0.155731 0.847535
vt 0.053962 0.873744
vt 0.030493 0.837242
vt 0.018743 0.838450
vt 0.018743 0.880818
vt 0.104234 0.883456
vt 0.088504 0.871274
vt 0.084908 0.886297
vt 0.092883 0.861031
vt 0.090928 0.870476
vt 0.093694 0.868253
vt 0.094230 0.872307
vt 0.050798 0.842101
vt 0.876344 0.983825
vt 0.853338 0.898668
vt 0.826289 0.934893
vt 0.836797 0.986161
vt 0.067653 0.846432
vt 0.077672 0.858082
vt 0.876344 0.884649
vt 0.234620 0.963647
vt 0.234620 0.911966
vt 0.229593 0.929621
vt 0.845886 0.738351
vt 0.832165 0.732589
vt 0.786512 0.733115
vt 0.794050 0.874373
vt 0.843766 0.796149
vt 0.947687 0.313987
vt 0.902147 0.291598
vt 0.853599 0.344790
vt 0.861376 0.379232
vt 0.898177 0.394637
vt 0.947687 0.385133
vt 0.040415 0.812169
vt 0.054266 0.797127
vt 0.057078 0.795056
vt 0.053933 0.789689
vt 0.058644 0.819300
vt 0.058961 0.798761
vt 0.065658 0.808152
vt 0.060690 0.796581
vt 0.067105 0.826341
vt 0.078808 0.887728
vt 0.056719 0.887728
vt 0.025134 0.889697
vt 0.018743 0.934812
vt 0.056719 0.931122
vt 0.097725 0.903838
vt 0.030069 0.956530
vt 0.054278 0.955234
vt 0.099619 0.971279
vt 0.108632 0.935686
vt 0.099619 0.935174
vt 0.225656 0.949250
vt 0.863942 0.818442
vt 0.128200 0.828645
vt 0.122176 0.794427
vt 0.110158 0.803518
vt 0.121029 0.832809
vt 0.206221 0.828487
vt 0.196074 0.820665
vt 0.196074 0.841004
vt 0.078808 0.866759
vt 0.783352 0.939733
vt 0.912179 0.477440
vt 0.912179 0.394637
vt 0.853599 0.439945
vt 0.127060 0.282321
vt 0.019305 0.290271
vt 0.015146 0.352356
vt 0.127060 0.357487
vt 0.025865 0.391999
vt 0.792748 0.385649
vt 0.764636 0.291598
vt 0.712291 0.348851
vt 0.712291 0.416442
vt 0.800338 0.291598
vt 0.792748 0.332545
vt 0.853599 0.456433
vt 0.853599 0.308898
vt 0.761392 0.422068
vt 0.049092 0.763971
vt 0.031495 0.768186
vt 0.027808 0.805479
vt 0.225656 0.953630
vt 0.225656 0.917646
vt 0.212523 0.924706
vt 0.212360 0.938219
vt 0.036293 0.240634
vt 0.114706 0.778717
vt 0.096129 0.795307
vt 0.220655 0.821492
vt 0.220553 0.824456
vt 0.222520 0.823854
vt 0.222386 0.820665
vt 0.055308 0.796568
vt 0.222520 0.839888
vt 0.058285 0.794587
vt 0.276081 0.201275
vt 0.306609 0.291376
vt 0.318398 0.288546
vt 0.286431 0.194130
vt 0.266520 0.194130
vt 0.219852 0.281801
vt 0.230954 0.281900
vt 0.276081 0.200069
vt 0.318398 0.194130
vt 0.332023 0.261458
vt 0.344281 0.263955
vt 0.331461 0.194436
vt 0.282115 0.349204
vt 0.303439 0.350296
vt 0.241385 0.353503
vt 0.259380 0.345455
vt 0.320712 0.330212
vt 0.341450 0.337204
vt 0.267236 0.400671
vt 0.276081 0.407869
vt 0.275103 0.397847
vt 0.276081 0.392602
vt 0.283756 0.393878
vt 0.318398 0.384889
vt 0.327045 0.392687
vt 0.354705 0.257735
vt 0.354705 0.201435
vt 0.344281 0.204305
vt 0.320136 0.394822
vt 0.351543 0.196431
vt 0.344905 0.194130
vt 0.099666 0.768241
vt 0.850597 0.209870
vt 0.813490 0.164992
vt 0.858058 0.035777
vt 0.891303 0.211223
vt 0.896322 0.039849
vt 0.896322 0.064785
vt 0.896322 0.082811
s 0
usemtl Material
f 12/1/1 3/4/1 4/3/1 10/2/1
f 3/5/2 71/11/2 74/10/2 1/9/2 13/8/2 14/7/2 15/6/2
f 9/12/3 1/9/3 74/10/3 73/13/3
f 10/14/4 4/21/4 36/20/4 37/19/4 33/18/4 34/17/4 2/16/4 11/15/4
f 9/22/5 5/25/5 6/24/5 11/23/5
f 1/9/6 9/12/6 11/27/6 2/26/6
f 8/28/7 10/14/7 11/15/7 6/29/7
f 5/30/8 9/12/8 73/13/8 75/31/8
f 7/32/9 12/1/9 10/2/9 8/35/9 44/34/9 43/33/9
f 1/9/10 2/26/10 4/38/10 3/5/10 15/6/10 16/37/10 17/36/10 13/8/10
f 16/39/11 20/41/11 17/40/11
f 14/42/12 19/44/12 15/43/12
f 17/45/13 20/48/13 18/47/13 13/46/13
f 15/43/14 19/44/14 20/50/14 16/49/14
f 13/46/15 18/47/15 19/52/15 14/51/15
f 22/53/16 32/56/16 20/55/16 26/54/16
f 23/57/17 25/59/17 21/58/17
f 23/60/18 24/62/18 30/61/18
f 30/63/19 24/65/19 22/64/19
f 22/66/20 24/68/20 23/67/20
f 29/69/21 23/72/21 19/71/21 18/70/21
f 23/57/22 21/58/22 22/73/22
f 21/74/23 20/76/23 32/75/23
f 19/77/24 26/79/24 20/78/24
f 18/47/25 20/48/25 29/80/25
f 31/81/26 23/83/26 29/82/26
f 19/84/27 28/85/27 26/54/27
f 19/71/28 27/87/28 28/86/28
f 19/71/29 23/72/29 27/87/29
f 21/88/30 25/89/30 23/83/30 31/81/30
f 20/90/31 21/93/31 31/92/31 29/91/31
f 26/54/32 28/85/32 22/53/32
f 27/94/33 30/97/33 22/96/33 28/95/33
f 23/72/34 30/98/34 27/87/34
f 32/99/35 22/73/35 21/58/35
f 4/21/36 2/16/36 34/17/36 35/100/36 36/20/36
f 37/101/37 42/104/37 38/103/37 33/102/37
f 57/105/38 60/108/38 58/107/38 42/106/38
f 35/109/39 40/112/39 41/111/39 36/110/39
f 33/113/40 38/116/40 39/115/40 34/114/40
f 36/117/41 41/119/41 42/106/41 37/118/41
f 34/120/42 39/121/42 40/112/42 35/109/42
f 44/122/43 51/128/43 46/127/43 45/126/43 52/125/43 48/124/43 43/123/43
f 46/127/43 50/131/43 47/130/43 49/129/43 45/126/43
f 55/132/44 54/136/44 53/135/44 57/134/44 56/133/44
f 38/137/45 66/140/45 67/139/45 39/138/45
f 41/119/46 56/141/46 57/105/46 42/106/46
f 40/142/47 63/144/47 65/93/47 55/143/47
f 41/111/48 40/112/48 55/146/48 56/145/48
f 58/147/49 60/150/49 61/149/49 59/148/49
f 42/151/50 58/154/50 59/153/50 38/152/50
f 53/135/51 61/156/51 60/155/51 57/134/51
f 38/152/52 59/153/52 61/158/52 53/157/52
f 62/159/53 64/162/53 65/161/53 63/160/53
f 54/163/54 64/166/54 62/165/54 39/164/54
f 39/167/55 62/170/55 63/169/55 40/168/55
f 55/132/56 65/172/56 64/171/56 54/136/56
f 66/173/57 68/110/57 69/175/57 67/174/57
f 54/136/58 69/177/58 68/176/58 53/135/58
f 39/178/59 67/181/59 69/180/59 54/179/59
f 53/182/60 68/185/60 66/184/60 38/183/60
f 71/11/61 3/5/61 12/187/61 70/186/61
f 70/188/62 12/191/62 7/190/62 72/189/62
f 74/10/63 71/11/63 70/186/63 73/13/63
f 73/13/64 70/186/64 72/192/64 75/31/64
f 97/193/65 96/196/65 80/195/65 81/194/65
f 95/197/66 76/199/66 77/198/66
f 95/197/67 121/203/67 122/202/67 120/201/67 77/198/67 78/200/67
f 97/193/68 81/194/68 82/204/68
f 96/205/69 95/208/69 78/207/69 79/206/69
f 97/193/70 82/204/70 83/209/70
f 84/210/71 97/193/71 83/209/71
f 96/205/72 79/206/72 80/211/72
f 84/212/73 98/214/73 91/213/73
f 99/215/74 111/219/74 86/218/74 87/217/74 108/216/74
f 100/220/75 105/225/75 110/224/75 99/223/75 108/222/75 101/221/75
f 102/226/76 112/229/76 115/228/76 117/227/76
f 103/230/77 102/226/77 118/231/77
f 103/230/78 118/231/78 90/233/78 91/232/78
f 98/234/79 103/230/79 91/232/79
f 84/210/80 94/235/80 97/193/80
f 94/236/81 93/239/81 96/238/81 97/237/81
f 92/240/82 76/199/82 95/197/82
f 93/239/83 92/242/83 95/241/83 96/238/83
f 107/243/84 100/245/84 101/244/84
f 84/212/85 83/246/85 98/214/85
f 80/211/86 79/206/86 86/218/86 111/219/86 114/247/86
f 81/248/87 80/251/87 114/250/87 107/249/87
f 77/252/88 76/254/88 85/253/88
f 78/200/89 77/198/89 85/255/89
f 82/204/90 81/194/90 102/226/90
f 79/206/91 78/207/91 85/256/91 86/218/91
f 82/204/92 102/226/92 103/230/92
f 83/209/93 82/204/93 103/230/93 98/234/93
f 106/257/94 105/259/94 100/258/94
f 101/260/95 108/263/95 88/262/95 113/261/95
f 108/263/96 87/264/96 88/262/96
f 109/265/97 106/267/97 104/266/97
f 105/268/98 106/267/98 109/265/98
f 110/269/99 109/272/99 111/271/99 99/270/99
f 105/268/100 109/265/100 110/273/100
f 112/229/101 101/275/101 89/274/101
f 102/226/102 81/194/102 107/276/102
f 112/229/103 102/226/103 107/276/103 101/275/103
f 107/277/104 104/280/104 106/279/104 100/278/104
f 89/281/105 101/260/105 113/261/105
f 107/249/106 114/250/106 104/282/106
f 114/250/107 111/283/107 104/282/107
f 115/284/108 116/287/108 119/286/108 117/285/108
f 102/226/109 119/288/109 118/231/109
f 117/285/110 119/286/110 102/289/110
f 118/231/111 119/288/111 116/290/111 90/233/111
f 121/291/112 120/294/112 123/293/112 124/292/112
f 120/295/113 122/298/113 125/297/113 123/296/113
f 122/299/114 121/302/114 124/301/114 125/300/114
f 124/292/115 123/293/115 126/304/115 127/303/115
f 123/296/116 125/297/116 128/306/116 126/305/116
f 125/300/117 124/301/117 127/308/117 128/307/117
f 129/309/118 132/311/118 133/310/118
f 127/303/119 126/304/119 130/313/119 131/312/119
f 126/305/120 128/306/120 132/311/120 129/309/120
f 128/307/121 127/308/121 131/315/121 132/314/121
f 126/316/122 129/318/122 130/317/122
f 132/314/123 131/315/123 133/319/123
f 130/317/124 129/318/124 133/321/124 131/320/124
f 77/198/125 120/201/125 121/203/125 95/197/125
f 104/282/126 111/283/126 109/322/126
f 141/323/127 139/325/127 137/3/127 136/324/127
f 136/5/128 144/6/128 143/7/128 142/8/128 134/9/128 192/10/128 190/11/128
f 138/12/129 191/13/129 192/10/129 134/9/129
f 139/14/130 140/15/130 135/16/130 163/17/130 162/18/130 166/19/130 165/20/130 137/21/130
f 138/22/5 140/23/5 6/24/5 5/25/5
f 134/9/131 135/26/131 140/27/131 138/12/131
f 8/28/132 6/29/132 140/15/132 139/14/132
f 5/30/133 75/31/133 191/13/133 138/12/133
f 7/326/134 43/329/134 44/328/134 8/327/134 139/325/134 141/323/134
f 134/9/135 142/8/135 146/36/135 145/37/135 144/6/135 136/5/135 137/38/135 135/26/135
f 145/39/136 146/40/136 149/41/136
f 143/42/137 144/43/137 148/44/137
f 146/45/138 142/46/138 147/47/138 149/48/138
f 144/43/139 145/49/139 149/50/139 148/44/139
f 142/46/140 143/51/140 148/52/140 147/47/140
f 151/53/141 155/54/141 149/55/141 161/56/141
f 152/57/142 150/58/142 154/59/142
f 152/60/143 159/61/143 153/62/143
f 159/63/144 151/64/144 153/65/144
f 151/66/145 152/67/145 153/68/145
f 158/69/146 147/70/146 148/71/146 152/72/146
f 152/57/147 151/73/147 150/58/147
f 150/74/148 161/75/148 149/76/148
f 148/77/149 149/78/149 155/79/149
f 147/47/150 158/80/150 149/48/150
f 160/81/151 158/82/151 152/83/151
f 148/84/152 155/54/152 157/85/152
f 148/71/153 157/86/153 156/87/153
f 148/71/154 156/87/154 152/72/154
f 150/88/155 160/81/155 152/83/155 154/89/155
f 149/90/156 158/91/156 160/92/156 150/93/156
f 155/54/157 151/53/157 157/85/157
f 156/94/158 157/95/158 151/96/158 159/97/158
f 152/72/159 156/87/159 159/98/159
f 161/99/160 150/58/160 151/73/160
f 137/21/161 165/20/161 164/100/161 163/17/161 135/16/161
f 166/101/162 162/102/162 167/103/162 171/104/162
f 176/105/163 171/106/163 177/107/163 179/108/163
f 164/109/164 165/110/164 170/111/164 169/112/164
f 162/113/165 163/114/165 168/115/165 167/116/165
f 165/117/166 166/118/166 171/106/166 170/119/166
f 163/120/167 164/109/167 169/112/167 168/121/167
f 174/132/168 175/133/168 176/134/168 172/135/168 173/136/168
f 167/137/169 168/138/169 186/139/169 185/140/169
f 170/119/170 171/106/170 176/105/170 175/141/170
f 169/142/171 174/143/171 184/93/171 182/144/171
f 170/111/172 175/145/172 174/146/172 169/112/172
f 177/147/173 178/148/173 180/149/173 179/150/173
f 171/151/174 167/152/174 178/153/174 177/154/174
f 172/135/175 176/134/175 179/155/175 180/156/175
f 167/152/176 172/157/176 180/158/176 178/153/176
f 181/159/177 182/160/177 184/161/177 183/162/177
f 173/163/178 168/164/178 181/165/178 183/166/178
f 168/167/179 169/168/179 182/169/179 181/170/179
f 174/132/180 173/136/180 183/171/180 184/172/180
f 185/173/181 186/174/181 188/175/181 187/110/181
f 173/136/182 172/135/182 187/176/182 188/177/182
f 168/178/183 173/179/183 188/180/183 186/181/183
f 172/182/184 167/183/184 185/184/184 187/185/184
f 190/11/185 189/186/185 141/187/185 136/5/185
f 189/188/186 72/189/186 7/190/186 141/191/186
f 192/10/187 191/13/187 189/186/187 190/11/187
f 191/13/188 75/31/188 72/192/188 189/186/188
f 214/193/189 198/194/189 197/195/189 213/196/189
f 212/197/190 194/198/190 193/199/190
f 212/197/191 195/200/191 194/198/191 237/201/191 239/202/191 238/203/191
f 214/193/192 199/204/192 198/194/192
f 213/205/193 196/206/193 195/207/193 212/208/193
f 214/193/194 200/209/194 199/204/194
f 201/210/195 200/209/195 214/193/195
f 213/205/196 197/211/196 196/206/196
f 201/212/197 208/213/197 215/214/197
f 216/215/198 225/216/198 204/217/198 203/218/198 228/219/198
f 217/220/199 218/221/199 225/222/199 216/223/199 227/224/199 222/225/199
f 219/226/200 234/227/200 232/228/200 229/229/200
f 220/230/201 235/231/201 219/226/201
f 220/230/202 208/232/202 207/233/202 235/231/202
f 215/234/203 208/232/203 220/230/203
f 201/210/204 214/193/204 211/235/204
f 211/236/205 214/237/205 213/238/205 210/239/205
f 209/240/206 212/197/206 193/199/206
f 210/239/207 213/238/207 212/241/207 209/242/207
f 224/243/208 218/244/208 217/245/208
f 201/212/209 215/214/209 200/246/209
f 197/211/210 231/247/210 228/219/210 203/218/210 196/206/210
f 198/248/211 224/249/211 231/250/211 197/251/211
f 194/252/212 202/253/212 193/254/212
f 195/200/213 202/255/213 194/198/213
f 199/204/214 219/226/214 198/194/214
f 196/206/215 203/218/215 202/256/215 195/207/215
f 199/204/216 220/230/216 219/226/216
f 200/209/217 215/234/217 220/230/217 199/204/217
f 223/257/218 217/258/218 222/259/218
f 218/260/219 230/261/219 205/262/219 225/263/219
f 225/263/220 205/262/220 204/264/220
f 226/265/221 221/266/221 223/267/221
f 222/268/222 226/265/222 223/267/222
f 227/269/223 216/270/223 228/271/223 226/272/223
f 222/268/224 227/273/224 226/265/224
f 229/229/225 206/274/225 218/275/225
f 219/226/226 224/276/226 198/194/226
f 229/229/227 218/275/227 224/276/227 219/226/227
f 224/277/228 217/278/228 223/279/228 221/280/228
f 206/281/229 230/261/229 218/260/229
f 224/249/230 221/282/230 231/250/230
f 231/250/231 221/282/231 228/283/231
f 232/284/232 234/285/232 236/286/232 233/287/232
f 219/226/233 235/231/233 236/288/233
f 234/285/234 219/289/234 236/286/234
f 235/231/235 207/233/235 233/290/235 236/288/235
f 238/291/236 241/292/236 240/293/236 237/294/236
f 237/295/237 240/296/237 242/297/237 239/298/237
f 239/299/238 242/300/238 241/301/238 238/302/238
f 241/292/239 244/303/239 243/304/239 240/293/239
f 240/296/240 243/305/240 245/306/240 242/297/240
f 242/300/241 245/307/241 244/308/241 241/301/241
f 246/309/242 250/310/242 249/311/242
f 244/303/243 248/312/243 247/313/243 243/304/243
f 243/305/244 246/309/244 249/311/244 245/306/244
f 245/307/245 249/314/245 248/315/245 244/308/245
f 243/316/246 247/317/246 246/318/246
f 249/314/247 250/319/247 248/315/247
f 247/317/248 248/320/248 250/321/248 246/318/248
f 194/198/249 212/197/249 238/203/249 237/201/249
f 221/282/250 226/322/250 228/283/250
